%TF.GenerationSoftware,KiCad,Pcbnew,(5.1.10)-1*%
%TF.CreationDate,2021-10-17T19:26:43+13:00*%
%TF.ProjectId,POWER_LED,504f5745-525f-44c4-9544-2e6b69636164,0A*%
%TF.SameCoordinates,Original*%
%TF.FileFunction,Soldermask,Top*%
%TF.FilePolarity,Negative*%
%FSLAX46Y46*%
G04 Gerber Fmt 4.6, Leading zero omitted, Abs format (unit mm)*
G04 Created by KiCad (PCBNEW (5.1.10)-1) date 2021-10-17 19:26:43*
%MOMM*%
%LPD*%
G01*
G04 APERTURE LIST*
%ADD10C,2.200000*%
%ADD11C,2.600000*%
G04 APERTURE END LIST*
D10*
%TO.C,H1*%
X145000000Y-98000000D03*
%TD*%
%TO.C,H5*%
G36*
G01*
X150220000Y-102525000D02*
X150220000Y-101475000D01*
G75*
G02*
X150745000Y-100950000I525000J0D01*
G01*
X151795000Y-100950000D01*
G75*
G02*
X152320000Y-101475000I0J-525000D01*
G01*
X152320000Y-102525000D01*
G75*
G02*
X151795000Y-103050000I-525000J0D01*
G01*
X150745000Y-103050000D01*
G75*
G02*
X150220000Y-102525000I0J525000D01*
G01*
G37*
%TD*%
%TO.C,R1*%
G36*
G01*
X148240000Y-100385000D02*
X148240000Y-100015000D01*
G75*
G02*
X148375000Y-99880000I135000J0D01*
G01*
X148645000Y-99880000D01*
G75*
G02*
X148780000Y-100015000I0J-135000D01*
G01*
X148780000Y-100385000D01*
G75*
G02*
X148645000Y-100520000I-135000J0D01*
G01*
X148375000Y-100520000D01*
G75*
G02*
X148240000Y-100385000I0J135000D01*
G01*
G37*
G36*
G01*
X147220000Y-100385000D02*
X147220000Y-100015000D01*
G75*
G02*
X147355000Y-99880000I135000J0D01*
G01*
X147625000Y-99880000D01*
G75*
G02*
X147760000Y-100015000I0J-135000D01*
G01*
X147760000Y-100385000D01*
G75*
G02*
X147625000Y-100520000I-135000J0D01*
G01*
X147355000Y-100520000D01*
G75*
G02*
X147220000Y-100385000I0J135000D01*
G01*
G37*
%TD*%
%TO.C,R2*%
G36*
G01*
X150240000Y-100385000D02*
X150240000Y-100015000D01*
G75*
G02*
X150375000Y-99880000I135000J0D01*
G01*
X150645000Y-99880000D01*
G75*
G02*
X150780000Y-100015000I0J-135000D01*
G01*
X150780000Y-100385000D01*
G75*
G02*
X150645000Y-100520000I-135000J0D01*
G01*
X150375000Y-100520000D01*
G75*
G02*
X150240000Y-100385000I0J135000D01*
G01*
G37*
G36*
G01*
X149220000Y-100385000D02*
X149220000Y-100015000D01*
G75*
G02*
X149355000Y-99880000I135000J0D01*
G01*
X149625000Y-99880000D01*
G75*
G02*
X149760000Y-100015000I0J-135000D01*
G01*
X149760000Y-100385000D01*
G75*
G02*
X149625000Y-100520000I-135000J0D01*
G01*
X149355000Y-100520000D01*
G75*
G02*
X149220000Y-100385000I0J135000D01*
G01*
G37*
%TD*%
%TO.C,R3*%
G36*
G01*
X152240000Y-100385000D02*
X152240000Y-100015000D01*
G75*
G02*
X152375000Y-99880000I135000J0D01*
G01*
X152645000Y-99880000D01*
G75*
G02*
X152780000Y-100015000I0J-135000D01*
G01*
X152780000Y-100385000D01*
G75*
G02*
X152645000Y-100520000I-135000J0D01*
G01*
X152375000Y-100520000D01*
G75*
G02*
X152240000Y-100385000I0J135000D01*
G01*
G37*
G36*
G01*
X151220000Y-100385000D02*
X151220000Y-100015000D01*
G75*
G02*
X151355000Y-99880000I135000J0D01*
G01*
X151625000Y-99880000D01*
G75*
G02*
X151760000Y-100015000I0J-135000D01*
G01*
X151760000Y-100385000D01*
G75*
G02*
X151625000Y-100520000I-135000J0D01*
G01*
X151355000Y-100520000D01*
G75*
G02*
X151220000Y-100385000I0J135000D01*
G01*
G37*
%TD*%
%TO.C,H3*%
G36*
G01*
X145140000Y-102525000D02*
X145140000Y-101475000D01*
G75*
G02*
X145665000Y-100950000I525000J0D01*
G01*
X146715000Y-100950000D01*
G75*
G02*
X147240000Y-101475000I0J-525000D01*
G01*
X147240000Y-102525000D01*
G75*
G02*
X146715000Y-103050000I-525000J0D01*
G01*
X145665000Y-103050000D01*
G75*
G02*
X145140000Y-102525000I0J525000D01*
G01*
G37*
%TD*%
%TO.C,H4*%
G36*
G01*
X147680000Y-102525000D02*
X147680000Y-101475000D01*
G75*
G02*
X148205000Y-100950000I525000J0D01*
G01*
X149255000Y-100950000D01*
G75*
G02*
X149780000Y-101475000I0J-525000D01*
G01*
X149780000Y-102525000D01*
G75*
G02*
X149255000Y-103050000I-525000J0D01*
G01*
X148205000Y-103050000D01*
G75*
G02*
X147680000Y-102525000I0J525000D01*
G01*
G37*
%TD*%
%TO.C,H6*%
G36*
G01*
X152760000Y-102525000D02*
X152760000Y-101475000D01*
G75*
G02*
X153285000Y-100950000I525000J0D01*
G01*
X154335000Y-100950000D01*
G75*
G02*
X154860000Y-101475000I0J-525000D01*
G01*
X154860000Y-102525000D01*
G75*
G02*
X154335000Y-103050000I-525000J0D01*
G01*
X153285000Y-103050000D01*
G75*
G02*
X152760000Y-102525000I0J525000D01*
G01*
G37*
%TD*%
D11*
%TO.C,D1*%
X150000000Y-98000000D03*
G36*
G01*
X152050000Y-97262500D02*
X152050000Y-98737500D01*
G75*
G02*
X151837500Y-98950000I-212500J0D01*
G01*
X151412500Y-98950000D01*
G75*
G02*
X151200000Y-98737500I0J212500D01*
G01*
X151200000Y-97262500D01*
G75*
G02*
X151412500Y-97050000I212500J0D01*
G01*
X151837500Y-97050000D01*
G75*
G02*
X152050000Y-97262500I0J-212500D01*
G01*
G37*
G36*
G01*
X148800000Y-97262500D02*
X148800000Y-98737500D01*
G75*
G02*
X148587500Y-98950000I-212500J0D01*
G01*
X148162500Y-98950000D01*
G75*
G02*
X147950000Y-98737500I0J212500D01*
G01*
X147950000Y-97262500D01*
G75*
G02*
X148162500Y-97050000I212500J0D01*
G01*
X148587500Y-97050000D01*
G75*
G02*
X148800000Y-97262500I0J-212500D01*
G01*
G37*
%TD*%
D10*
%TO.C,H2*%
X155000000Y-98000000D03*
%TD*%
M02*
