%TF.GenerationSoftware,KiCad,Pcbnew,(5.1.10)-1*%
%TF.CreationDate,2021-10-17T19:26:43+13:00*%
%TF.ProjectId,POWER_LED,504f5745-525f-44c4-9544-2e6b69636164,0A*%
%TF.SameCoordinates,Original*%
%TF.FileFunction,Legend,Bot*%
%TF.FilePolarity,Positive*%
%FSLAX46Y46*%
G04 Gerber Fmt 4.6, Leading zero omitted, Abs format (unit mm)*
G04 Created by KiCad (PCBNEW (5.1.10)-1) date 2021-10-17 19:26:43*
%MOMM*%
%LPD*%
G01*
G04 APERTURE LIST*
%ADD10C,0.250000*%
%ADD11C,0.200000*%
G04 APERTURE END LIST*
D10*
X146650000Y-100285714D02*
X146400000Y-100952380D01*
X146150000Y-100285714D01*
X145200000Y-100952380D02*
X145800000Y-100952380D01*
X145500000Y-100952380D02*
X145500000Y-99952380D01*
X145600000Y-100095238D01*
X145700000Y-100190476D01*
X145800000Y-100238095D01*
X144750000Y-100857142D02*
X144700000Y-100904761D01*
X144750000Y-100952380D01*
X144800000Y-100904761D01*
X144750000Y-100857142D01*
X144750000Y-100952380D01*
X144050000Y-99952380D02*
X143950000Y-99952380D01*
X143850000Y-100000000D01*
X143800000Y-100047619D01*
X143750000Y-100142857D01*
X143700000Y-100333333D01*
X143700000Y-100571428D01*
X143750000Y-100761904D01*
X143800000Y-100857142D01*
X143850000Y-100904761D01*
X143950000Y-100952380D01*
X144050000Y-100952380D01*
X144150000Y-100904761D01*
X144200000Y-100857142D01*
X144250000Y-100761904D01*
X144300000Y-100571428D01*
X144300000Y-100333333D01*
X144250000Y-100142857D01*
X144200000Y-100047619D01*
X144150000Y-100000000D01*
X144050000Y-99952380D01*
X149375000Y-100952380D02*
X149875000Y-100952380D01*
X149875000Y-99952380D01*
X149025000Y-100428571D02*
X148675000Y-100428571D01*
X148525000Y-100952380D02*
X149025000Y-100952380D01*
X149025000Y-99952380D01*
X148525000Y-99952380D01*
X148075000Y-100952380D02*
X148075000Y-99952380D01*
X147825000Y-99952380D01*
X147675000Y-100000000D01*
X147575000Y-100095238D01*
X147525000Y-100190476D01*
X147475000Y-100380952D01*
X147475000Y-100523809D01*
X147525000Y-100714285D01*
X147575000Y-100809523D01*
X147675000Y-100904761D01*
X147825000Y-100952380D01*
X148075000Y-100952380D01*
X151080952Y-100947619D02*
X150319047Y-100947619D01*
X156325000Y-100952380D02*
X156325000Y-99952380D01*
X155925000Y-99952380D01*
X155825000Y-100000000D01*
X155775000Y-100047619D01*
X155725000Y-100142857D01*
X155725000Y-100285714D01*
X155775000Y-100380952D01*
X155825000Y-100428571D01*
X155925000Y-100476190D01*
X156325000Y-100476190D01*
X155075000Y-99952380D02*
X154875000Y-99952380D01*
X154775000Y-100000000D01*
X154675000Y-100095238D01*
X154625000Y-100285714D01*
X154625000Y-100619047D01*
X154675000Y-100809523D01*
X154775000Y-100904761D01*
X154875000Y-100952380D01*
X155075000Y-100952380D01*
X155175000Y-100904761D01*
X155275000Y-100809523D01*
X155325000Y-100619047D01*
X155325000Y-100285714D01*
X155275000Y-100095238D01*
X155175000Y-100000000D01*
X155075000Y-99952380D01*
X154275000Y-99952380D02*
X154025000Y-100952380D01*
X153825000Y-100238095D01*
X153625000Y-100952380D01*
X153375000Y-99952380D01*
X152975000Y-100428571D02*
X152625000Y-100428571D01*
X152475000Y-100952380D02*
X152975000Y-100952380D01*
X152975000Y-99952380D01*
X152475000Y-99952380D01*
X151425000Y-100952380D02*
X151775000Y-100476190D01*
X152025000Y-100952380D02*
X152025000Y-99952380D01*
X151625000Y-99952380D01*
X151525000Y-100000000D01*
X151475000Y-100047619D01*
X151425000Y-100142857D01*
X151425000Y-100285714D01*
X151475000Y-100380952D01*
X151525000Y-100428571D01*
X151625000Y-100476190D01*
X152025000Y-100476190D01*
D11*
X154509523Y-102100000D02*
X154585714Y-102061904D01*
X154700000Y-102061904D01*
X154814285Y-102100000D01*
X154890476Y-102176190D01*
X154928571Y-102252380D01*
X154966666Y-102404761D01*
X154966666Y-102519047D01*
X154928571Y-102671428D01*
X154890476Y-102747619D01*
X154814285Y-102823809D01*
X154700000Y-102861904D01*
X154623809Y-102861904D01*
X154509523Y-102823809D01*
X154471428Y-102785714D01*
X154471428Y-102519047D01*
X154623809Y-102519047D01*
X154128571Y-102861904D02*
X154128571Y-102061904D01*
X153671428Y-102861904D01*
X153671428Y-102061904D01*
X153290476Y-102861904D02*
X153290476Y-102061904D01*
X153100000Y-102061904D01*
X152985714Y-102100000D01*
X152909523Y-102176190D01*
X152871428Y-102252380D01*
X152833333Y-102404761D01*
X152833333Y-102519047D01*
X152871428Y-102671428D01*
X152909523Y-102747619D01*
X152985714Y-102823809D01*
X153100000Y-102861904D01*
X153290476Y-102861904D01*
X151838095Y-102061904D02*
X151342857Y-102061904D01*
X151609523Y-102366666D01*
X151495238Y-102366666D01*
X151419047Y-102404761D01*
X151380952Y-102442857D01*
X151342857Y-102519047D01*
X151342857Y-102709523D01*
X151380952Y-102785714D01*
X151419047Y-102823809D01*
X151495238Y-102861904D01*
X151723809Y-102861904D01*
X151800000Y-102823809D01*
X151838095Y-102785714D01*
X151000000Y-102785714D02*
X150961904Y-102823809D01*
X151000000Y-102861904D01*
X151038095Y-102823809D01*
X151000000Y-102785714D01*
X151000000Y-102861904D01*
X150695238Y-102061904D02*
X150200000Y-102061904D01*
X150466666Y-102366666D01*
X150352380Y-102366666D01*
X150276190Y-102404761D01*
X150238095Y-102442857D01*
X150200000Y-102519047D01*
X150200000Y-102709523D01*
X150238095Y-102785714D01*
X150276190Y-102823809D01*
X150352380Y-102861904D01*
X150580952Y-102861904D01*
X150657142Y-102823809D01*
X150695238Y-102785714D01*
X148409523Y-102061904D02*
X148790476Y-102061904D01*
X148828571Y-102442857D01*
X148790476Y-102404761D01*
X148714285Y-102366666D01*
X148523809Y-102366666D01*
X148447619Y-102404761D01*
X148409523Y-102442857D01*
X148371428Y-102519047D01*
X148371428Y-102709523D01*
X148409523Y-102785714D01*
X148447619Y-102823809D01*
X148523809Y-102861904D01*
X148714285Y-102861904D01*
X148790476Y-102823809D01*
X148828571Y-102785714D01*
X146352380Y-102861904D02*
X146809523Y-102861904D01*
X146580952Y-102861904D02*
X146580952Y-102061904D01*
X146657142Y-102176190D01*
X146733333Y-102252380D01*
X146809523Y-102290476D01*
X146047619Y-102138095D02*
X146009523Y-102100000D01*
X145933333Y-102061904D01*
X145742857Y-102061904D01*
X145666666Y-102100000D01*
X145628571Y-102138095D01*
X145590476Y-102214285D01*
X145590476Y-102290476D01*
X145628571Y-102404761D01*
X146085714Y-102861904D01*
X145590476Y-102861904D01*
M02*
