%TF.GenerationSoftware,KiCad,Pcbnew,(5.1.10)-1*%
%TF.CreationDate,2021-10-17T19:26:43+13:00*%
%TF.ProjectId,POWER_LED,504f5745-525f-44c4-9544-2e6b69636164,0A*%
%TF.SameCoordinates,Original*%
%TF.FileFunction,Copper,L2,Bot*%
%TF.FilePolarity,Positive*%
%FSLAX46Y46*%
G04 Gerber Fmt 4.6, Leading zero omitted, Abs format (unit mm)*
G04 Created by KiCad (PCBNEW (5.1.10)-1) date 2021-10-17 19:26:43*
%MOMM*%
%LPD*%
G01*
G04 APERTURE LIST*
%TA.AperFunction,ViaPad*%
%ADD10C,0.550000*%
%TD*%
%TA.AperFunction,Conductor*%
%ADD11C,0.254000*%
%TD*%
%TA.AperFunction,Conductor*%
%ADD12C,0.100000*%
%TD*%
G04 APERTURE END LIST*
D10*
%TO.N,Net-(D1-Pad1)*%
X152800000Y-98000000D03*
X152800000Y-99000000D03*
X147200000Y-98000000D03*
X147200000Y-99000000D03*
X147200000Y-97000000D03*
X152800000Y-97000000D03*
X144000000Y-102500000D03*
X144000000Y-101500000D03*
X144000000Y-100500000D03*
X156000000Y-100500000D03*
X156000000Y-101500000D03*
X156000000Y-102500000D03*
%TD*%
D11*
%TO.N,Net-(D1-Pad1)*%
X148535825Y-96798382D02*
X148329534Y-97107118D01*
X148187439Y-97450166D01*
X148115000Y-97814344D01*
X148115000Y-98185656D01*
X148187439Y-98549834D01*
X148329534Y-98892882D01*
X148535825Y-99201618D01*
X148798382Y-99464175D01*
X149107118Y-99670466D01*
X149450166Y-99812561D01*
X149814344Y-99885000D01*
X150185656Y-99885000D01*
X150549834Y-99812561D01*
X150892882Y-99670466D01*
X151201618Y-99464175D01*
X151464175Y-99201618D01*
X151670466Y-98892882D01*
X151812561Y-98549834D01*
X151885000Y-98185656D01*
X151885000Y-97814344D01*
X151812561Y-97450166D01*
X151670466Y-97107118D01*
X151464175Y-96798382D01*
X151325793Y-96660000D01*
X153886339Y-96660000D01*
X153652337Y-96894002D01*
X153462463Y-97178169D01*
X153331675Y-97493919D01*
X153265000Y-97829117D01*
X153265000Y-98170883D01*
X153331675Y-98506081D01*
X153462463Y-98821831D01*
X153652337Y-99105998D01*
X153894002Y-99347663D01*
X154178169Y-99537537D01*
X154493919Y-99668325D01*
X154829117Y-99735000D01*
X155170883Y-99735000D01*
X155506081Y-99668325D01*
X155821831Y-99537537D01*
X156105998Y-99347663D01*
X156340000Y-99113661D01*
X156340001Y-102840000D01*
X143660000Y-102840000D01*
X143660000Y-99113661D01*
X143894002Y-99347663D01*
X144178169Y-99537537D01*
X144493919Y-99668325D01*
X144829117Y-99735000D01*
X145170883Y-99735000D01*
X145506081Y-99668325D01*
X145821831Y-99537537D01*
X146105998Y-99347663D01*
X146347663Y-99105998D01*
X146537537Y-98821831D01*
X146668325Y-98506081D01*
X146735000Y-98170883D01*
X146735000Y-97829117D01*
X146668325Y-97493919D01*
X146537537Y-97178169D01*
X146347663Y-96894002D01*
X146113661Y-96660000D01*
X148674207Y-96660000D01*
X148535825Y-96798382D01*
%TA.AperFunction,Conductor*%
D12*
G36*
X148535825Y-96798382D02*
G01*
X148329534Y-97107118D01*
X148187439Y-97450166D01*
X148115000Y-97814344D01*
X148115000Y-98185656D01*
X148187439Y-98549834D01*
X148329534Y-98892882D01*
X148535825Y-99201618D01*
X148798382Y-99464175D01*
X149107118Y-99670466D01*
X149450166Y-99812561D01*
X149814344Y-99885000D01*
X150185656Y-99885000D01*
X150549834Y-99812561D01*
X150892882Y-99670466D01*
X151201618Y-99464175D01*
X151464175Y-99201618D01*
X151670466Y-98892882D01*
X151812561Y-98549834D01*
X151885000Y-98185656D01*
X151885000Y-97814344D01*
X151812561Y-97450166D01*
X151670466Y-97107118D01*
X151464175Y-96798382D01*
X151325793Y-96660000D01*
X153886339Y-96660000D01*
X153652337Y-96894002D01*
X153462463Y-97178169D01*
X153331675Y-97493919D01*
X153265000Y-97829117D01*
X153265000Y-98170883D01*
X153331675Y-98506081D01*
X153462463Y-98821831D01*
X153652337Y-99105998D01*
X153894002Y-99347663D01*
X154178169Y-99537537D01*
X154493919Y-99668325D01*
X154829117Y-99735000D01*
X155170883Y-99735000D01*
X155506081Y-99668325D01*
X155821831Y-99537537D01*
X156105998Y-99347663D01*
X156340000Y-99113661D01*
X156340001Y-102840000D01*
X143660000Y-102840000D01*
X143660000Y-99113661D01*
X143894002Y-99347663D01*
X144178169Y-99537537D01*
X144493919Y-99668325D01*
X144829117Y-99735000D01*
X145170883Y-99735000D01*
X145506081Y-99668325D01*
X145821831Y-99537537D01*
X146105998Y-99347663D01*
X146347663Y-99105998D01*
X146537537Y-98821831D01*
X146668325Y-98506081D01*
X146735000Y-98170883D01*
X146735000Y-97829117D01*
X146668325Y-97493919D01*
X146537537Y-97178169D01*
X146347663Y-96894002D01*
X146113661Y-96660000D01*
X148674207Y-96660000D01*
X148535825Y-96798382D01*
G37*
%TD.AperFunction*%
%TD*%
M02*
